<!DOCTYPE svg PUBLIC "-//W3C//DTD SVG 1.1//EN" "http://www.w3.org/Graphics/SVG/1.1/DTD/svg11.dtd">

<!-- Uploaded to: SVG Repo, www.svgrepo.com, Transformed by: SVG Repo Mixer Tools -->
<svg fill="#fff" width="800px" height="800px" viewBox="0 0 512 512" version="1.1" xml:space="preserve" xmlns="http://www.w3.org/2000/svg" xmlns:xlink="http://www.w3.org/1999/xlink" stroke="#fff">

<g id="SVGRepo_bgCarrier" stroke-width="0"/>

<g id="SVGRepo_tracerCarrier" stroke-linecap="round" stroke-linejoin="round"/>

<g id="SVGRepo_iconCarrier"> <g id="A_-_59_x2C__growth_x2C__grow_x2C__hand_x2C__success"> <g> <path d="M438.81,75.644c4.501,0,8.164-3.621,8.164-8.071c0-4.576-3.587-8.16-8.164-8.16c-4.551,0-8.116,3.584-8.116,8.16 C430.693,72.022,434.334,75.644,438.81,75.644z"/> <path d="M208.945,156.005c4.475,0,8.115-3.661,8.115-8.16c0-4.451-3.64-8.072-8.115-8.072c-4.501,0-8.164,3.621-8.164,8.072 C200.781,152.345,204.443,156.005,208.945,156.005z"/> <path d="M117.236,403.688c-0.221,0-0.444,0.011-0.667,0.034c-3.443,0.408-5.972,3.595-5.587,7.098 c0.379,3.389,3.604,5.978,7.024,5.571c1.713-0.205,3.244-1.066,4.311-2.425c1.033-1.314,1.493-2.933,1.296-4.555 C123.253,406.134,120.513,403.688,117.236,403.688z"/> <path d="M115.899,338.98c-0.155-0.209-0.309-0.415-0.462-0.618c-0.71-0.946-1.403-1.849-2.073-2.694 c-0.486-0.613-0.96-1.2-1.422-1.756c-0.461-0.558-0.911-1.084-1.346-1.579c-0.871-0.988-1.685-1.852-2.436-2.569 c-3.687-3.546-7.054-5.267-10.3-5.267c-2.551,0-4.853,1.054-6.991,2.133c-1.369,0.681-3.088,1.495-5.038,2.419 c-8.232,3.899-25.361,12.011-27.624,16.78c-1.847,3.921-0.151,9.921,1.813,16.866c0.536,1.898,1.091,3.861,1.6,5.881 c3.878,15.508,3.941,33.582,4.002,51.063c0.065,18.639,0.126,36.243,4.62,49.498c0.704,2.046,1.25,2.396,1.255,2.399l0.005-0.016 c1.091,0,3.677-1.52,6.177-2.988c5.035-2.938,15.261-7.668,27.103-13.144c11.783-5.45,25.139-11.627,35.81-17.179 c16.154-8.402,18.5-11.444,18.833-12.177c1.676-3.756,0.786-9.554-2.734-17.697C150.108,392.848,129.637,357.449,115.899,338.98z M127.476,418.019c-2.151,2.738-5.237,4.475-8.691,4.886c-0.501,0.06-1.012,0.091-1.517,0.091c-6.57,0-12.075-4.923-12.806-11.451 c-0.778-7.074,4.33-13.505,11.386-14.341c0.494-0.051,0.943-0.074,1.387-0.074c6.627,0,12.17,4.956,12.894,11.53 C130.533,411.988,129.592,415.324,127.476,418.019z"/> <path d="M356.238,96.096c2.637,0,4.784-2.166,4.784-4.828c0-2.618-2.19-4.829-4.784-4.829c-2.66,0-4.824,2.167-4.824,4.829 C351.414,93.975,353.533,96.096,356.238,96.096z"/> <path d="M428.355,305.611c-2.712,0-5.541,0.209-8.406,0.616c-25.163,3.478-66.996,21.325-86.75,36.932 c-0.949,1.947-2.258,3.688-3.945,5.207c-5.679,5.115-15.023,7.048-26.041,7.048c-18.262,0-41.12-5.306-59.521-10.214 c-1.41-0.377-2.601-0.695-3.537-0.935c-1.755-0.449-2.813-2.236-2.364-3.991c0.449-1.755,2.233-2.814,3.991-2.363 c0.953,0.244,2.166,0.567,3.602,0.95c43.321,11.557,70.062,13.115,79.479,4.631c1.155-1.041,2.03-2.249,2.628-3.639 c0.009-0.022,0.014-0.047,0.022-0.069c0.008-0.018,0.014-0.036,0.021-0.053c0.172-0.411,0.322-0.836,0.444-1.279 c0.01-0.033,0.021-0.066,0.029-0.101c0.539-2.007,0.596-4.335,0.174-7.016c-4.02-25.587-69.604-39.204-115.412-39.204 c-8.725,0-15.994,0.534-21.023,1.541c-16.289,3.203-41.2,14.495-76.083,34.491c0.034,0.039,0.071,0.084,0.105,0.123 c0.394,0.453,0.794,0.922,1.204,1.414c0.009,0.01,0.018,0.021,0.026,0.031c0.425,0.512,0.859,1.045,1.299,1.597 c0.025,0.032,0.049,0.062,0.075,0.094c0.432,0.542,0.872,1.104,1.317,1.683c0.048,0.063,0.095,0.124,0.143,0.187 c0.442,0.577,0.891,1.17,1.345,1.778c0.043,0.058,0.086,0.116,0.13,0.175c1.446,1.944,2.947,4.048,4.487,6.275 c0.027,0.039,0.055,0.079,0.083,0.119c0.502,0.727,1.008,1.468,1.518,2.22c0.032,0.047,0.063,0.094,0.096,0.142 c1.583,2.34,3.196,4.792,4.821,7.319c0.01,0.017,0.021,0.033,0.031,0.049c0.536,0.833,1.073,1.675,1.61,2.524 c0.021,0.032,0.041,0.065,0.063,0.098c1.642,2.595,3.288,5.25,4.918,7.93c0.002,0.003,0.003,0.006,0.005,0.01 c0.534,0.877,1.066,1.758,1.596,2.639c0.024,0.041,0.049,0.082,0.073,0.123c0.524,0.873,1.046,1.747,1.565,2.621 c0.016,0.027,0.033,0.055,0.049,0.082c1.062,1.791,2.111,3.579,3.14,5.355c0.001,0.002,0.002,0.004,0.003,0.005 c0.502,0.868,1,1.731,1.492,2.591c0.031,0.055,0.062,0.107,0.092,0.161c0.481,0.84,0.957,1.675,1.426,2.505 c0.034,0.061,0.068,0.12,0.102,0.181c0.972,1.718,1.918,3.41,2.834,5.069c0.002,0.003,0.003,0.007,0.005,0.01 c0.44,0.797,0.872,1.586,1.297,2.365c0.045,0.083,0.091,0.167,0.137,0.251c0.412,0.756,0.816,1.504,1.213,2.242 c0.042,0.076,0.083,0.153,0.124,0.229c0.401,0.746,0.794,1.483,1.178,2.207c0.024,0.046,0.048,0.091,0.071,0.136 c0.779,1.472,1.52,2.893,2.218,4.257c0.042,0.083,0.085,0.167,0.128,0.249c0.326,0.639,0.643,1.263,0.95,1.874 c0.048,0.097,0.096,0.19,0.144,0.286c0.306,0.61,0.603,1.208,0.887,1.789c0.03,0.061,0.059,0.118,0.088,0.178 c0.587,1.201,1.128,2.333,1.617,3.39c0.02,0.044,0.043,0.092,0.063,0.136c17.383-6.5,32.688-9.665,46.704-9.665 c16.077,0,28.956,4.144,41.411,8.148c13.201,4.246,26.852,8.637,45.186,8.637c3.021,0,6.141-0.121,9.275-0.359 c15.826-1.151,52.145-17.053,86.363-37.812c35.896-21.775,59.529-43.078,58.811-53.008 C448.381,307.9,437.414,305.611,428.355,305.611z"/> <path d="M115.617,301.847c0.543,0,1.095-0.136,1.603-0.421c0.579-0.325,58.165-32.564,84.004-39.046 c25.326-6.269,120.817,26.788,121.778,27.122c0.064,0.023,0.131,0.028,0.194,0.047c0.112,0.031,0.223,0.061,0.338,0.08 c0.118,0.021,0.234,0.028,0.353,0.035c0.064,0.005,0.127,0.021,0.193,0.021c0.033,0,0.063-0.01,0.096-0.01 c0.124-0.003,0.245-0.02,0.367-0.037c0.096-0.014,0.191-0.024,0.284-0.047c0.108-0.025,0.21-0.063,0.315-0.098 c0.098-0.034,0.195-0.065,0.289-0.107c0.098-0.044,0.188-0.099,0.28-0.151c0.089-0.052,0.179-0.102,0.263-0.16 c0.09-0.063,0.17-0.137,0.254-0.21c0.074-0.065,0.15-0.128,0.221-0.199c0.074-0.079,0.139-0.166,0.207-0.252 c0.064-0.083,0.129-0.164,0.186-0.254c0.054-0.083,0.098-0.174,0.143-0.263c0.056-0.106,0.108-0.211,0.152-0.323 c0.012-0.032,0.03-0.059,0.041-0.091c0.023-0.064,0.029-0.13,0.047-0.194c0.031-0.111,0.061-0.223,0.08-0.338 c0.021-0.116,0.028-0.231,0.035-0.347c0.004-0.067,0.021-0.131,0.021-0.199v-40.848c0.372,0.264,0.798,0.458,1.264,0.55 c12.698,2.516,24.794,3.792,35.952,3.792c28.32,0,50.638-7.974,66.328-23.697c21.953-21.952,28.82-57.307,19.861-102.241 c-0.259-1.298-1.273-2.314-2.572-2.574c-12.707-2.544-24.822-3.833-36.008-3.833c-28.221,0-50.52,7.955-66.282,23.652 c-8.416,8.433-14.605,18.845-18.543,31.007v-67.773c4.456-22.608,0.892-40.485-10.325-51.701 c-8.104-8.145-19.555-12.273-34.031-12.273c-5.623,0-11.719,0.642-18.116,1.908c-1.302,0.257-2.319,1.274-2.579,2.576 c-4.56,22.855-0.994,40.891,10.307,52.151c8.08,8.08,19.505,12.177,33.957,12.178c0,0,0.001,0,0.002,0 c4.473,0,9.246-0.412,14.227-1.213v82.61c-2.686-6.156-6.314-11.564-10.893-16.142c-11.029-10.995-26.603-16.57-46.286-16.57 c-7.69,0-16.011,0.878-24.73,2.611c-1.302,0.259-2.319,1.277-2.578,2.578c-6.19,31.144-1.376,55.688,13.916,70.976 c10.976,11.008,26.507,16.59,46.162,16.591c0,0,0.002,0,0.004,0c7.582,0,15.794-0.862,24.406-2.553v33.654 c-19.496-6.58-96.934-31.803-121.164-25.802c-26.697,6.696-83.236,38.346-85.629,39.69c-1.579,0.887-2.141,2.886-1.254,4.466 C113.355,301.242,114.469,301.847,115.617,301.847z M331.328,235.99l43.643-45.526l-3.574-43.794 c-0.148-1.806,1.195-3.388,3.002-3.535c1.803-0.148,3.388,1.196,3.535,3.002l3.102,38l25.137-26.222 c1.254-1.309,3.329-1.351,4.637-0.098c1.308,1.253,1.352,3.329,0.098,4.637l-53.812,56.136l39.09-6.149 c1.793-0.281,3.47,0.941,3.749,2.73c0.282,1.79-0.94,3.468-2.729,3.75l-47.604,7.488l-13.756,14.35 c-1.256-0.212-2.516-0.432-3.784-0.671C331.799,238.712,331.557,237.347,331.328,235.99z M349.826,242.61 c-0.679-0.064-1.358-0.133-2.042-0.205C348.468,242.477,349.147,242.546,349.826,242.61z M346.045,242.211 c-0.731-0.084-1.464-0.171-2.202-0.266C344.581,242.04,345.313,242.126,346.045,242.211z M342.255,241.732 c-0.79-0.107-1.581-0.215-2.378-0.333C340.674,241.517,341.465,241.625,342.255,241.732z M338.498,241.184 c-0.869-0.136-1.738-0.269-2.614-0.417C336.76,240.915,337.629,241.048,338.498,241.184z M351.707,242.775 c0.623,0.052,1.248,0.104,1.868,0.148C352.955,242.879,352.33,242.828,351.707,242.775z M355.631,243.056 c0.553,0.033,1.107,0.068,1.656,0.096C356.738,243.124,356.184,243.088,355.631,243.056z M359.651,243.244 c0.435,0.015,0.872,0.035,1.304,0.045C360.523,243.279,360.086,243.259,359.651,243.244z M444.752,127.398 c7.877,41.647,1.5,74.178-18.488,94.167c-14.418,14.447-35.173,21.773-61.688,21.773c-0.001,0-0.001,0-0.001,0 c26.515,0,47.269-7.326,61.687-21.773c19.988-19.989,26.363-52.52,18.487-94.167c-11.496-2.182-22.44-3.287-32.564-3.287h0.001 C422.311,124.112,433.255,125.216,444.752,127.398z M346.968,149.729c-0.052,0.06-0.099,0.122-0.147,0.181 C346.869,149.85,346.916,149.788,346.968,149.729z M328.803,206.208c-0.004,0.413-0.012,0.823-0.012,1.237 C328.791,207.03,328.799,206.62,328.803,206.208z M345.318,151.755c-0.104,0.133-0.201,0.269-0.303,0.403 C345.117,152.024,345.215,151.888,345.318,151.755z M343.748,153.851c-0.128,0.179-0.25,0.363-0.377,0.543 C343.498,154.214,343.62,154.03,343.748,153.851z M342.255,156.017c-0.14,0.21-0.272,0.426-0.41,0.64 C341.982,156.443,342.115,156.228,342.255,156.017z M340.84,158.25c-0.145,0.238-0.282,0.48-0.424,0.72 C340.559,158.73,340.695,158.488,340.84,158.25z M339.504,160.55c-0.146,0.261-0.283,0.526-0.426,0.789 C339.221,161.076,339.358,160.811,339.504,160.55z M338.243,162.92c-0.142,0.277-0.276,0.559-0.414,0.839 C337.967,163.48,338.102,163.197,338.243,162.92z M337.063,165.355c-0.137,0.295-0.268,0.594-0.4,0.892 C336.795,165.949,336.926,165.65,337.063,165.355z M335.961,167.855c-0.131,0.311-0.258,0.626-0.385,0.939 C335.703,168.481,335.83,168.167,335.961,167.855z M334.936,170.421c-0.123,0.326-0.241,0.654-0.362,0.982 C334.694,171.076,334.813,170.747,334.936,170.421z M333.99,173.053c-0.115,0.339-0.227,0.68-0.338,1.021 C333.764,173.733,333.875,173.392,333.99,173.053z M333.123,175.749c-0.106,0.351-0.21,0.705-0.313,1.059 C332.913,176.453,333.016,176.1,333.123,175.749z M332.334,178.51c-0.098,0.361-0.191,0.725-0.285,1.089 C332.143,179.235,332.236,178.872,332.334,178.51z M331.624,181.335c-0.087,0.371-0.173,0.745-0.255,1.119 C331.451,182.08,331.537,181.707,331.624,181.335z M330.993,184.222c-0.077,0.382-0.153,0.765-0.227,1.15 C330.84,184.987,330.916,184.604,330.993,184.222z M330.442,187.169c-0.067,0.393-0.135,0.786-0.198,1.181 C330.308,187.955,330.375,187.562,330.442,187.169z M329.969,190.186c-0.057,0.398-0.113,0.796-0.165,1.197 C329.855,190.981,329.912,190.583,329.969,190.186z M329.574,193.266c-0.045,0.403-0.091,0.806-0.133,1.212 C329.483,194.071,329.529,193.668,329.574,193.266z M329.262,196.402c-0.035,0.41-0.071,0.82-0.104,1.233 C329.19,197.221,329.227,196.812,329.262,196.402z M329.029,199.604c-0.025,0.414-0.053,0.826-0.073,1.243 C328.977,200.43,329.004,200.018,329.029,199.604z M328.875,202.872c-0.014,0.416-0.03,0.828-0.041,1.246 C328.845,203.7,328.861,203.288,328.875,202.872z M329.779,224.925c-0.018-0.17-0.032-0.337-0.05-0.506 C329.747,224.588,329.762,224.754,329.779,224.925z M329.422,221.318c-0.026-0.302-0.047-0.6-0.072-0.9 C329.375,220.719,329.396,221.016,329.422,221.318z M329.145,217.767c-0.025-0.361-0.042-0.716-0.064-1.076 C329.103,217.05,329.119,217.405,329.145,217.767z M328.946,214.272c-0.018-0.392-0.027-0.778-0.043-1.167 C328.919,213.494,328.929,213.88,328.946,214.272z M328.829,210.828c-0.011-0.404-0.011-0.803-0.018-1.204 C328.818,210.025,328.818,210.424,328.829,210.828z M305.272,179.174c0.78,0.779,1.526,1.591,2.246,2.429 c-0.72-0.838-1.468-1.648-2.249-2.429c-9.752-9.723-23.765-14.653-41.649-14.653c0.001,0,0.001,0,0.001,0 C281.507,164.521,295.521,169.451,305.272,179.174z M311.455,186.966c-0.565-0.903-1.156-1.783-1.779-2.636 C310.299,185.183,310.89,186.063,311.455,186.966z M309.564,184.181c-0.639-0.868-1.303-1.712-2.002-2.527 C308.262,182.469,308.926,183.314,309.564,184.181z M296.393,244.157c1.261,0,2.549-0.033,3.849-0.084 c-1.3,0.05-2.585,0.084-3.847,0.084H296.393z M317.766,242.068c-4.357,0.8-8.584,1.365-12.662,1.706 c2.873-0.243,5.82-0.596,8.836-1.064l-33.59-34.977l-19.344,7.325c-0.383,0.145-0.775,0.213-1.161,0.213 c-1.324,0-2.571-0.808-3.069-2.119c-0.641-1.694,0.212-3.587,1.908-4.229l16.726-6.333l-11.892-12.383 c-1.256-1.307-1.213-3.383,0.093-4.638c1.306-1.255,3.382-1.213,4.638,0.094l31.418,32.715l1.502-22.91 c0.119-1.809,1.68-3.167,3.488-3.059c1.807,0.118,3.177,1.68,3.059,3.488l-1.895,28.889l12.638,13.161 c2.247-14.53,1.806-27.286-1.259-37.922C320.555,211.654,320.775,225.816,317.766,242.068z M300.83,244.05 c1.307-0.059,2.633-0.141,3.976-0.251C303.463,243.908,302.137,243.992,300.83,244.05z M311.585,187.171 c0.557,0.899,1.084,1.824,1.585,2.772C312.669,188.995,312.142,188.071,311.585,187.171z M313.291,190.172 c0.498,0.955,0.969,1.933,1.409,2.935C314.26,192.104,313.789,191.126,313.291,190.172z M314.795,193.322 c0.443,1.019,0.859,2.062,1.245,3.128C315.654,195.382,315.238,194.341,314.795,193.322z M316.097,196.611 c0.393,1.094,0.755,2.212,1.087,3.356C316.853,198.823,316.488,197.705,316.097,196.611z M306.574,102.717h-0.002l0,0 c4.574,0,9.51-0.464,14.701-1.379c3.484-19.483,0.43-34.654-8.885-43.967c-6.834-6.866-16.72-10.346-29.386-10.347h0.001 c12.668,0,22.553,3.479,29.388,10.347c9.313,9.313,12.37,24.484,8.884,43.967C316.085,102.253,311.149,102.717,306.574,102.717z"/> </g> </g> <g id="Layer_1"/> </g>

</svg>